<svg xmlns="http://www.w3.org/2000/svg" viewBox="0 0 500 500"><g id="freepik--Floor--inject-91"><path id="freepik--floor--inject-91" d="M140.42,318.34c-63.59,36.71-63.59,96.23,0,132.94s166.67,36.71,230.26,0,63.58-96.23,0-132.94S204,281.63,140.42,318.34Z" style="fill:#f5f5f5"></path></g><g id="freepik--Circles--inject-91"><g id="freepik--circles--inject-91"><path d="M81.33,87a7,7,0,1,1,7-7A7,7,0,0,1,81.33,87Zm0-13a6,6,0,1,0,6,6A6,6,0,0,0,81.33,74Z" style="fill:#f0f0f0"></path><path d="M35.69,144.19a7,7,0,1,1,7-7A7,7,0,0,1,35.69,144.19Zm0-13a6,6,0,1,0,6,6A6,6,0,0,0,35.69,131.2Z" style="fill:#f0f0f0"></path><path d="M161.41,196.53a7,7,0,1,1,7-7A7,7,0,0,1,161.41,196.53Zm0-13a6,6,0,1,0,6,6A6,6,0,0,0,161.41,183.54Z" style="fill:#f0f0f0"></path><path d="M31.22,309.77a7,7,0,1,1,7-7A7,7,0,0,1,31.22,309.77Zm0-13a6,6,0,1,0,6,6A6,6,0,0,0,31.22,296.78Z" style="fill:#f0f0f0"></path><path d="M239.81,124.8a7,7,0,1,1,7-7A7,7,0,0,1,239.81,124.8Zm0-13a6,6,0,1,0,6,6A6,6,0,0,0,239.81,111.82Z" style="fill:#f0f0f0"></path><path d="M232,62.16a7,7,0,1,1,7-7A7,7,0,0,1,232,62.16Zm0-13a6,6,0,1,0,6,6A6,6,0,0,0,232,49.18Z" style="fill:#f0f0f0"></path><path d="M121.39,37.12A3.38,3.38,0,1,1,118,33.74,3.39,3.39,0,0,1,121.39,37.12Z" style="fill:#f0f0f0"></path><path d="M259.9,83.53a3.38,3.38,0,1,1-3.38-3.38A3.38,3.38,0,0,1,259.9,83.53Z" style="fill:#f0f0f0"></path><path d="M99.11,127.47a3.38,3.38,0,1,1-3.38-3.38A3.39,3.39,0,0,1,99.11,127.47Z" style="fill:#f0f0f0"></path><path d="M57.42,39.28A3.38,3.38,0,1,1,54,35.9,3.39,3.39,0,0,1,57.42,39.28Z" style="fill:#f0f0f0"></path><path d="M282.19,43.11a3.38,3.38,0,1,1-3.38-3.38A3.38,3.38,0,0,1,282.19,43.11Z" style="fill:#f0f0f0"></path><path d="M311.15,190.26a3.38,3.38,0,1,1-3.37-3.38A3.37,3.37,0,0,1,311.15,190.26Z" style="fill:#f0f0f0"></path><path d="M143.7,252.17a3.38,3.38,0,1,1-3.37-3.38A3.37,3.37,0,0,1,143.7,252.17Z" style="fill:#f0f0f0"></path><path d="M46.06,267.77a3.38,3.38,0,1,1-3.38-3.38A3.37,3.37,0,0,1,46.06,267.77Z" style="fill:#f0f0f0"></path><path d="M37.45,90.71a3.38,3.38,0,1,1-3.38-3.38A3.38,3.38,0,0,1,37.45,90.71Z" style="fill:#f0f0f0"></path><path d="M388.08,127.47a7,7,0,1,1,7,7A7,7,0,0,1,388.08,127.47Zm1,0a6,6,0,1,0,6-6A6,6,0,0,0,389.08,127.47Z" style="fill:#f0f0f0"></path><path d="M445.49,94.84a7,7,0,1,1,7,7A7,7,0,0,1,445.49,94.84Zm1,0a6,6,0,1,0,6-6A6,6,0,0,0,446.49,94.84Z" style="fill:#f0f0f0"></path><path d="M372.6,37.12a7,7,0,1,1,7,7A7,7,0,0,1,372.6,37.12Zm1,0a6,6,0,1,0,6-6A6,6,0,0,0,373.6,37.12Z" style="fill:#f0f0f0"></path><path d="M461.88,266.66a7,7,0,1,1-9.05-4A7,7,0,0,1,461.88,266.66ZM461,267a6,6,0,1,0-3.41,7.76A6,6,0,0,0,461,267Z" style="fill:#f0f0f0"></path><path d="M411.58,78.62A3.38,3.38,0,1,0,415,75.24,3.37,3.37,0,0,0,411.58,78.62Z" style="fill:#f0f0f0"></path><path d="M437.27,39.28a3.38,3.38,0,1,0,3.37-3.38A3.38,3.38,0,0,0,437.27,39.28Z" style="fill:#f0f0f0"></path><path d="M351,252.17a3.38,3.38,0,1,0,3.37-3.38A3.37,3.37,0,0,0,351,252.17Z" style="fill:#f0f0f0"></path><path d="M472.79,293.27a3.38,3.38,0,1,0-1.92,4.37A3.39,3.39,0,0,0,472.79,293.27Z" style="fill:#f0f0f0"></path><path d="M457.23,154.32a3.38,3.38,0,1,0,3.38-3.38A3.38,3.38,0,0,0,457.23,154.32Z" style="fill:#f0f0f0"></path></g></g><g id="freepik--Shadow--inject-91"><path id="freepik--shadow--inject-91" d="M277.82,445.51a98,98,0,0,1,3.78-10.38,74.72,74.72,0,0,1,4.61-8.54c.54-.87,4.52-7.94,5.34-7.78a127.14,127.14,0,0,1,30.18,9.74c6.41,3,12.61,6.54,19.38,8.6s14.38,2.47,20.7-.71c7.14-3.61,12.52-14.07,7.47-21.37-4-5.77-10.15-7.26-16.66-8.43-7.86-1.42-21.51-1.57-30.11-4.73,7.48-6.56,14.9-14.52,21.35-21,9.76-9.85,20.36-21.26,11.49-33.57a22.26,22.26,0,0,0-5.55-5.57c-4.59-3.09-18.32-8.33-31.9-11a349.4,349.4,0,0,0-50.79-6.57c-23.17-1.46-52.44,1.83-65.75,8.94S180.94,352,182.09,364.47c1.83,19.81,24.68,28,34.74,32.12,7.22,3,14.82,4.82,22.29,7a115.37,115.37,0,0,1,11.2,3.82c2.62,1.07,6.48,2.76,7.24,5.78a7.21,7.21,0,0,1-.14,3.51c-.76,2.87-2.59,5.33-4,8-5.12,9.86-5.69,24.94,0,34.65,4,6.76,13.2,9.25,18.27,2.14a28.4,28.4,0,0,0,3.36-7.49C276.07,451.22,276.92,448.36,277.82,445.51Z" style="fill:#e0e0e0"></path></g><g id="freepik--Character--inject-91"><g id="freepik--character--inject-91"><g id="freepik--Bottom--inject-91"><path d="M287,398.35,301.28,379l18.35,17-31.45,26.65s-12.44-3.78-13.18-11.16S283.09,400,287,398.35Z" style="fill:#f0997a"></path><path d="M272.11,402.19c-4.05.11-5.84,1.17-7.3,4.43s-1.08,6.76-2.72,11.28-4.17,6.35-6.7,12.21-2.6,16.25.39,22.89,5.94,9.8,13.89,10Z" style="fill:#263238"></path><path d="M287,398.35l-1.72,2.22a19.75,19.75,0,0,0,4.94,10.09c4.29,4.59,6.52,4.73,6.52,4.73l1.41-1.19s.58.77-1.67,2.57a35,35,0,0,0-7.61,7.67c-3.21,4.31-7.09,15.2-8.82,23.28S278.38,461.83,272,463s-11.42-5.89-13.79-11.94-2-14.45-.11-20.17,6.92-8.68,7.38-15.68c.34-5.15,2-10,4.61-12s7.07-1.78,10.34-2.88S286,397.47,287,398.35Z" style="fill:#455a64"></path><path d="M279.09,452.71c-2.45-8.65-15.29-13.55-22.55-11.47a27.64,27.64,0,0,0,1.64,9.77c2.37,6.05,7.37,13.07,13.79,11.94C277,462.08,278,458.2,279.09,452.71Z" style="fill:#fafafa"></path><path d="M296.49,416.77c2.25-1.8,1.67-2.57,1.67-2.57l-1.41,1.19s-2.23-.14-6.52-4.73a19.75,19.75,0,0,1-4.94-10.09l1.72-2.22c-1.06-.88-3.34.84-6.61,1.95s-7.76.87-10.34,2.88a11.19,11.19,0,0,0-3.23,5.08l20.33,5.23s-3.52,8.58-6.24,16.66c-3.34,9.91-3.61,22.79-9.5,25.87-5.67,3-14-9.66-14.6-19.52A30.89,30.89,0,0,0,258.18,451c2.37,6.05,7.37,13.07,13.79,11.94s6.36-7.15,8.09-15.23,5.61-19,8.82-23.28A35,35,0,0,1,296.49,416.77Z" style="opacity:0.1"></path><path d="M281.29,444.5a10.29,10.29,0,0,0-1-1.85,15.37,15.37,0,0,0-2.55-3.08,16.53,16.53,0,0,0-7.47-4.23c-.26,0-.32.47-.15.58,2.26,1.5,4.71,2.72,6.7,4.6a15.83,15.83,0,0,1,2.28,2.63,14.31,14.31,0,0,1,.9,1.56,3.75,3.75,0,0,0,1.09,1.67.2.2,0,0,0,.22,0C281.82,445.83,281.5,445.06,281.29,444.5Z" style="fill:#fafafa"></path><path d="M283,438.55a13.51,13.51,0,0,0-4.38-5.74,19.58,19.58,0,0,0-2.68-1.84,13.4,13.4,0,0,0-1.48-.71,7.79,7.79,0,0,0-1.73-.41c-.21,0-.32.42-.15.52,1,.57,2,1.16,3,1.75a17.86,17.86,0,0,1,2.64,1.93,21.46,21.46,0,0,1,2.18,2.19c.78.92,1.47,1.92,2.23,2.85C282.85,439.41,283,438.74,283,438.55Z" style="fill:#fafafa"></path><path d="M284.25,429.18a15.07,15.07,0,0,0-2.46-2.77,17.45,17.45,0,0,0-3.24-2.27,8.2,8.2,0,0,0-3.4-1.34c-.29,0-.37.55-.18.7a29.19,29.19,0,0,0,3.29,1.93,20.05,20.05,0,0,1,2.92,2.11,13.26,13.26,0,0,1,2.1,2.33c.3.42.55.86.82,1.29s.64,1.25,1.07,1.8c.18.22.38-.14.39-.29A6,6,0,0,0,284.25,429.18Z" style="fill:#fafafa"></path><path d="M287.39,422.93c-.76-.91-1.55-1.79-2.39-2.62a17,17,0,0,0-2.77-2.22,6.43,6.43,0,0,0-3.07-1.25c-.3,0-.35.54-.14.67.93.61,1.92,1.12,2.82,1.76a22.48,22.48,0,0,1,2.5,2.17c.71.7,1.38,1.43,2,2.19a9.81,9.81,0,0,1,.89,1.15,3.32,3.32,0,0,1,.29.6c.12.3.32.55.45.84s.31.31.47.09C289.27,425.15,288.14,423.81,287.39,422.93Z" style="fill:#fafafa"></path><path d="M273.73,316.63s44.31,5.14,65.18,9.49c21.31,4.43,21,24,14.65,33.86-14.46,22.27-39.91,41.6-39.91,41.6s-16-5.62-17.61-17.24l9.44-14.44-27.1,3.47-11.31-11.83-5.69-5.78Z" style="fill:#37474f"></path><path d="M298.25,385.17s10.27,6.95,15.16,9.48a84.87,84.87,0,0,0,8.35,3.83l-6.31,18.78-26.34-8.48Z" style="fill:#ffbda7"></path><path d="M318.05,419.09s5.17,3.06,6.58,3.57,5,1.13,7.47,2.5,12.26,6.82,18.26,7.45,16.48-.78,19.92-10.54Z" style="fill:#263238"></path><path d="M317.25,396.54c1.85,1,2.2,7.77.68,11.81-1.18,3.13-4.59,7.85-6.55,7.6l-1.86-.6s0,1.34,3,2.08,12.14,3.88,15.61,4.84,10.48,5.28,14.95,6.75,8.68,3.62,16.56,1.41,13.81-9.82,11.54-17-9.71-9.44-15.92-10.57-17.12-.66-23.91-2.53a75.5,75.5,0,0,1-13.15-4.79,3.45,3.45,0,0,0-3.32-.18Z" style="fill:#455a64"></path><path d="M346.82,403.36a14.82,14.82,0,0,0-3.51,6.55,22,22,0,0,0-1.24,8.13c0,.27.39.75.6.32a12.75,12.75,0,0,0,.89-3.51c.23-1.21.44-2.42.74-3.61a26,26,0,0,1,1.1-3.33,31,31,0,0,1,2-3.71C347.64,403.84,347.27,402.93,346.82,403.36Z" style="fill:#fafafa"></path><path d="M341.23,403.41c-.05-.25-.25-.59-.56-.54-.6.11-.81.58-1.1,1.07a16.65,16.65,0,0,0-.85,1.62,22,22,0,0,0-1.2,3.27,25.64,25.64,0,0,0-.75,3.37,7.37,7.37,0,0,0,.07,3.9c.07.19.36.57.58.27.68-.92.55-2.15.71-3.25a22.43,22.43,0,0,1,.76-3.34,26,26,0,0,1,1.23-3.17c.25-.54.5-1.08.77-1.6A2,2,0,0,0,341.23,403.41Z" style="fill:#fafafa"></path><path d="M334.59,402.09a4.62,4.62,0,0,0-1,1.49c-.25.47-.49.95-.7,1.44a27.07,27.07,0,0,0-1.17,3.27,15.3,15.3,0,0,0-.83,6.76c.05.32.52.82.73.31a14.63,14.63,0,0,0,.71-3.16,27.21,27.21,0,0,1,.76-3.21,29,29,0,0,1,1.09-3c.2-.48.4-1,.62-1.44a5.89,5.89,0,0,0,.64-1.61C335.5,402.56,335.07,401.72,334.59,402.09Z" style="fill:#fafafa"></path><path d="M329.28,400.17a17.75,17.75,0,0,0-4.16,13.62c0,.22.27.19.33,0,.64-2.15,1.2-4.35,1.92-6.48s1.69-4.2,2.59-6.28C330.12,400.66,329.74,399.66,329.28,400.17Z" style="fill:#fafafa"></path><path d="M371.19,413.47c-1.79-5.66-6.84-8.27-11.95-9.67-7.67,3.77-10.14,23.49-8.51,27.39a21.45,21.45,0,0,0,8.92-.76C367.53,428.22,373.46,420.61,371.19,413.47Z" style="fill:#fafafa"></path><path d="M359.65,430.43c6.24-1.75,11.25-6.88,11.94-12.49a16.07,16.07,0,0,1-8.69,8.17c-6.58,2.66-20.26-1.95-26.16-5.46-4.79-2.85-12.81-4.95-20.43-9.13-1.53,2.4-3.57,4.6-4.93,4.43l-1.86-.6s0,1.34,3,2.08,12.14,3.88,15.61,4.84,10.48,5.28,14.95,6.75S351.77,432.64,359.65,430.43Z" style="opacity:0.1"></path><path d="M303.76,386.73c-12.6-10.42-30.86-27-38.95-30.85l-.63-.29c5.65-9.08,10.37-19,9.55-39l-82.89,1.83s-8.64,22.79-4.1,37.72c5.38,17.69,17.56,24.84,31.08,30.89,14,6.27,30.32,9,30.32,9,3.49,3.14,8.59,5.78,15.08,7.67,8.19,2.41,23.66,5.56,32.59,7.92C302.62,405.67,305.55,388.22,303.76,386.73Z" style="fill:#37474f"></path><path d="M268.72,353.2a38.55,38.55,0,0,0,3.46-16.58,48.35,48.35,0,0,1-5.92,15.52c-3.09-1.62-5.83-1.9-10.67-2-8.45-.21-33-.73-33-.73s23.18,2.09,35,4.32a24.44,24.44,0,0,1,6.5,1.88c6.14,3.11,10.68,7.13,13.55,9.3,5.3,4,9,7.41,9,7.41l4.72-.6s-9.77-8-17.2-14C273.21,356.91,269.63,354,268.72,353.2Zm-23.17,42.35,2.59.48.08.06a25.74,25.74,0,0,1-3.65-5.51A14.39,14.39,0,0,0,245.55,395.55Zm64.08-40.06c-4.62,7.55-5.35,8.91-8.83,15l4.68-.6c6.08-10.63,11.47-24.23,21.58-27.74C327.06,342.16,318.08,341.65,309.63,355.49Z" style="fill:#263238"></path></g><g id="freepik--Top--inject-91"><g id="freepik--Head--inject-91"><path d="M257.68,167.81a12.21,12.21,0,0,1-1.21-1.28,16.41,16.41,0,0,1-1.82-3.5,14.11,14.11,0,0,0-5-5.29,18.4,18.4,0,0,0-14.39-2.08,26.12,26.12,0,0,1-4.87,1.29c-3.06.27-5.52-1.25-8.42-1.8a14.88,14.88,0,0,0-17.37,11.38c-7.13.29-10.58,5.2-11.34,8-.84,3.12-.08,6.42-.8,9.55-.77,3.35-4.14,5.29-6,8.08a11.74,11.74,0,0,0-2.16,6.81,12.69,12.69,0,0,0,3.32,7.45c1.08,1.27,2.36,2.56,2.54,4.21s-.81,3.22-1.31,4.82a8.42,8.42,0,0,0,9.94,10.68,7.64,7.64,0,0,1-1.59-6.45c0,2.44,2.26,4.24,4.42,5.38a15.22,15.22,0,0,0,7.25,2.07,7.72,7.72,0,0,0,6.49-3.35,10.15,10.15,0,0,0,13.52.57,14.44,14.44,0,0,0,11.84,3.79,29.83,29.83,0,0,1,3.64-.53c1.23,0,2.42.32,3.64.41a9.44,9.44,0,0,0,5.23-1.18,4,4,0,0,0,2.3-3.06A2.65,2.65,0,0,1,256,227a3.64,3.64,0,0,0,4.62-3.12c.14-3.48-4.66-5.55-4.73-9-.06-2.58,2.48-4.37,3.66-6.67a8.06,8.06,0,0,0-1.12-8.49,12.2,12.2,0,0,0-7.8-4.17,12.24,12.24,0,0,0,9.48-10.34,13.46,13.46,0,0,1,.44,7,11.92,11.92,0,0,0,5.93-13.27c-1-3.71-3.72-6.68-6.65-9.16C259.11,169.06,258.37,168.46,257.68,167.81Z" style="fill:#263238"></path><path d="M238.26,231.59c-1.6,0-1.83-2.6-1.84-3.35l-.1-3.43c4.26.12,8.06-.57,10.54-2.31,4.16-2.9,7.84-7.19,8-21.41.08-5.75-1.53-8.47-1.41-9.76.29-3.1.55-6.44-.42-9.42-1.2-3.63-3.44-6.84-7.05-8.37a10.91,10.91,0,0,0-3.85-.88,5.89,5.89,0,0,0-3.51,1.38,8.39,8.39,0,0,1-1.9,1.24c-1.38.51-2.9-.13-4.29-.63-1.73-.63-4-1.5-5.89-1.35a8.85,8.85,0,0,0-3.69,1.34,6.61,6.61,0,0,0-2.15,1.77,6.48,6.48,0,0,0-.76,1.51,19.78,19.78,0,0,0-1.21,5,7.19,7.19,0,0,1-1.17,4c-.19.25-2.4,1.88-2.38,1.91a14.48,14.48,0,0,1,1.36,5.55,6.17,6.17,0,0,1-.38,2.63,2.88,2.88,0,0,1-1.93,1.72c-2,.41-2.38-2-3.37-3.23a8.13,8.13,0,0,0-3.6-2.51,6.06,6.06,0,0,0-6.91,2c-2.51,3.49-2.6,9,1.9,14.13s9.51,2,9.6,1c0,0,.48,15.72.5,18.35s-.28,3.73-3.5,4.85c0,0,5.13,7.94,22.14,6.35C241.84,238.71,238.26,231.59,238.26,231.59Z" style="fill:#ffbda7"></path><path d="M230.62,193.38A2.47,2.47,0,1,1,228.1,191,2.47,2.47,0,0,1,230.62,193.38Z" style="fill:#263238"></path><path d="M248.75,193.14a2.47,2.47,0,1,1-2.52-2.42A2.46,2.46,0,0,1,248.75,193.14Z" style="fill:#263238"></path><path d="M205,207a2.33,2.33,0,1,0,2.42-2.24A2.33,2.33,0,0,0,205,207Z" style="fill:#0049B7"></path><path d="M249.78,188.49l-5.66-1.82a2.86,2.86,0,0,1,3.64-2A3.13,3.13,0,0,1,249.78,188.49Z" style="fill:#263238"></path><path d="M231,206.65l9.36,2.62a4.66,4.66,0,0,1-5.82,3.45A5.11,5.11,0,0,1,231,206.65Z" style="fill:#b16668"></path><path d="M237,212.75a6.56,6.56,0,0,0-6.06-4.19,5.1,5.1,0,0,0,3.62,4.16A4.6,4.6,0,0,0,237,212.75Z" style="fill:#f28f8f"></path><path d="M223,189.54l5.19-3.07a2.9,2.9,0,0,0-4-1.14A3.17,3.17,0,0,0,223,189.54Z" style="fill:#263238"></path><path d="M236.32,224.81c-7-.1-16.14-1.67-22-10.93a14.38,14.38,0,0,0,6.56,10,25.5,25.5,0,0,0,15.51,3.74Z" style="fill:#f0997a"></path><path d="M244.81,201.16l-7.67,3-2.32-13.91C238.07,191.68,241.43,196,244.81,201.16Z" style="fill:#f0997a"></path></g><g id="freepik--Arm--inject-91"><g id="freepik--arm--inject-91"><path d="M296,264c-3.83,4.39-9,9.72-9,9.72s-5.28-10-8.76-16.13C269.39,242,266,233.22,248.34,231.79l1.54,31.46s11.14,17.62,20.33,30c2.66,3.58,5.71,8.13,10,9.88a8.9,8.9,0,0,0,5.63.32c2.4-.61,6.5-4.54,7.81-6.14,3.31-4,8.45-14,12-20.44Z" style="fill:#ffbda7"></path><path d="M287,273.71s-6.81,5.85-7.38,12.44c0,0-2-6.79,6.3-14.45Z" style="fill:#f0997a"></path></g><path id="freepik--Hand--inject-91" d="M320.06,265.19c-4.05,4.07-7.64,5-10.59,7.15-2.36,1.73-3.48,4-5.41,7.26,0,0-11.07-6.87-8.05-15.61a40.85,40.85,0,0,0,4.14-5.8c.75-1.22.58-5,.7-6.39.21-2.35,1.34-4.57,2.26-6.7.63-1.44,1-3,1.6-4.43.19-.49.32-1.18.94-1.18a2.1,2.1,0,0,1,1.73,1.31c1.06,2.31.23,4.58.16,7a.58.58,0,0,0,.17.51c.19.13.45,0,.64-.18a18.32,18.32,0,0,1,5.35-3.39,2.21,2.21,0,0,1,.67-.13c1.45,0,2.64,1.88,3.28,3a11.25,11.25,0,0,1,1.48,5.35C319.32,259.09,320.06,265.19,320.06,265.19Z" style="fill:#f0997a"></path></g><g id="freepik--Chest--inject-91"><path d="M273.75,316.66C272.34,326,259.6,335.61,245.63,339c-13.48,3.27-46.61,1.42-59.06-5.1,1.87-12.64,4.82-15.13,6.16-27.4,1.39-12.71-2.95-20.59-4.38-36.35-1.12-12.22,1.38-27,6.29-32.75l14.23-4s7.22,7.6,21.77,6c10.74-1.16,7.62-7.81,7.62-7.81l10.08.2c8.34,3.87,19,15.94,23.53,27.3,4.11,10.18,2.13,22.77-6.36,30.19l1.1,13.42A45.18,45.18,0,0,1,273.75,316.66Z" style="fill:#f0f0f0"></path><path d="M240,287.12s-6.7,7.8-19.53,6c-13.23-1.86-15.5-12.94-15.5-12.94s-1,14.4,14.83,16.63C234.37,298.86,240,287.12,240,287.12Z" style="fill:#e0e0e0"></path></g><g id="freepik--arm--inject-91"><path d="M194.64,237.41c-10.88,2.85-14.08,6.61-18.46,17.53s-14.27,40.82-16.61,55.65c-1.94,12.24,27.23-10.24,27.23-10.24s9.06-23.63,11.88-31.62S204.12,241.16,194.64,237.41Z" style="fill:#ffbda7"></path><path d="M191.59,287.79c-6.21,1.69-16.86,2.53-21.33,8.54l18.88-2.11C190.23,291.36,190.22,291.42,191.59,287.79Z" style="fill:#f0997a"></path><path id="freepik--Thumb--inject-91" d="M223.39,290.14c2.43-.53,10.08-8.86,11.25-11a34.67,34.67,0,0,1,4.76-6.53c1.75-1.91,2.57-4.31,1.91-5.34s-1.48-1.57-2.86-.44a20.56,20.56,0,0,1-6.4,3.93c-3.61,1.46-7.41,2.91-9,7.45S223.39,290.14,223.39,290.14Z" style="fill:#f0997a"></path><g id="freepik--Heart--inject-91"><path id="freepik--heart--inject-91" d="M275.67,317.88l-12.95-7.75c-.53-.38-1.21-.82-2-1.33-8.81-5.78-29.44-19.32-29.44-42.3a22.08,22.08,0,0,1,43.64-4.21,22.08,22.08,0,0,1,43.64,4.21c0,23.17-19.93,36.78-28.44,42.59l-1.51,1Z" style="fill:#0049B7"></path><path d="M249,283.34a.44.44,0,0,1-.43-.43V272.64a.41.41,0,0,1,.13-.3.42.42,0,0,1,.3-.13h4.69a4.2,4.2,0,0,1,1.7.31,3.29,3.29,0,0,1,1.1.78,3,3,0,0,1,.59,1,3.08,3.08,0,0,1,.19,1,2.57,2.57,0,0,1-.44,1.49,2.38,2.38,0,0,1-.37.44,2.09,2.09,0,0,1-.29.24,3.56,3.56,0,0,1,.91.94,2.77,2.77,0,0,1,.41,1.55,3.54,3.54,0,0,1-.22,1.2,3.34,3.34,0,0,1-.66,1.08,3.3,3.3,0,0,1-1.07.77,3.62,3.62,0,0,1-1.48.29Zm6.12-7.91a1.13,1.13,0,0,0-.38-.92,1.91,1.91,0,0,0-1.21-.31h-2.81v2.45h2.81a1.91,1.91,0,0,0,1.21-.31A1.12,1.12,0,0,0,255.13,275.43Zm-4.4,5.92h2.94A1.85,1.85,0,0,0,255,281a1.38,1.38,0,0,0,0-2,1.79,1.79,0,0,0-1.26-.38h-2.94Z" style="fill:#fafafa"></path><path d="M264,272.21a4.38,4.38,0,0,1,3,.93,3.22,3.22,0,0,1,1,2.55,3.57,3.57,0,0,1-.53,2,3.13,3.13,0,0,1-1.57,1.22l2.19,3.93a.3.3,0,0,1,0,.17.34.34,0,0,1-.35.35h-1.35a.65.65,0,0,1-.47-.15,1,1,0,0,1-.21-.28l-2.08-3.7h-2.12v3.7a.44.44,0,0,1-.43.43h-1.29a.43.43,0,0,1-.42-.43V272.64a.44.44,0,0,1,.12-.3.45.45,0,0,1,.3-.13Zm-2.39,5h2.31a2.74,2.74,0,0,0,1.44-.32,1.28,1.28,0,0,0,.54-1.21,1.24,1.24,0,0,0-.54-1.19,3,3,0,0,0-1.44-.3h-2.31Z" style="fill:#fafafa"></path><path d="M275.37,272.21a.52.52,0,0,1,.38.14,1.14,1.14,0,0,1,.22.4l3.89,10.05a.36.36,0,0,1,0,.11.44.44,0,0,1-.43.43h-1.14a.61.61,0,0,1-.45-.13.81.81,0,0,1-.17-.27l-.69-1.76h-5l-.68,1.76a.85.85,0,0,1-.18.27.58.58,0,0,1-.44.13h-1.15a.41.41,0,0,1-.3-.13.42.42,0,0,1-.13-.3.36.36,0,0,1,0-.11L273,272.75a1.14,1.14,0,0,1,.23-.4.49.49,0,0,1,.38-.14Zm.87,7-1.75-4.53-1.75,4.53Z" style="fill:#fafafa"></path><path d="M288.54,283.34a.58.58,0,0,1-.41-.14l-.21-.22-4.45-6.62v6.55a.41.41,0,0,1-.12.3.42.42,0,0,1-.31.13h-1.28a.42.42,0,0,1-.31-.13.41.41,0,0,1-.12-.3V272.64a.44.44,0,0,1,.12-.3.46.46,0,0,1,.31-.13h1.11a.53.53,0,0,1,.41.15,1.9,1.9,0,0,1,.21.22l4.45,6.61v-6.55a.41.41,0,0,1,.13-.3.42.42,0,0,1,.3-.13h1.29a.44.44,0,0,1,.43.43v10.27a.42.42,0,0,1-.13.3.41.41,0,0,1-.3.13Z" style="fill:#fafafa"></path><path d="M296.92,272.21a6.21,6.21,0,0,1,2,.31,3.86,3.86,0,0,1,1.45.89,3.82,3.82,0,0,1,.89,1.38,5.93,5.93,0,0,1,.37,1.81,18.43,18.43,0,0,1,0,2.35,6,6,0,0,1-.37,1.82,3.93,3.93,0,0,1-.88,1.38A3.89,3.89,0,0,1,299,283a5.7,5.7,0,0,1-2,.31h-4a.43.43,0,0,1-.42-.43V272.64a.44.44,0,0,1,.12-.3.45.45,0,0,1,.3-.13Zm2.61,4.39a3.14,3.14,0,0,0-.2-.94,2.2,2.2,0,0,0-.49-.77,2.49,2.49,0,0,0-.82-.51,3.45,3.45,0,0,0-1.18-.18h-2.13v7.15h2.21a3.19,3.19,0,0,0,1.13-.18,2.18,2.18,0,0,0,.79-.5,2,2,0,0,0,.49-.76,3.35,3.35,0,0,0,.2-1A23,23,0,0,0,299.53,276.6Z" style="fill:#fafafa"></path></g><g id="freepik--arm--inject-91"><path d="M230.12,278.75s5.16.11,7.16.36,5,2.34,6.67,2.46c1.9.13,3.14-1,2.46-2.43s-5.12-4.28-6.69-4.95a18.78,18.78,0,0,0-6.49-1.48c-3-.21-6.4-.65-7.51-.12-1.37.65-2.58,2.9-3.24,4.12s-3.23,5.29-4.7,7.58c-1.21,1.87-1.77,2.88-4.3,3.43-3,.66-15.62,2.66-23.44,3.66-5.8.73-14.89,1.64-20.94,5.76s-8.3,7.28-9.48,13.34c-.67,3.43-.45,11.24,18.7,9.48,10.1-.93,19.53-6.27,26.12-9.75,7.44-3.93,13.87-7,15.8-7.32,2.71-.41,5.77-1.22,7.68-3.53,2.47-3,3.65-4.35,7.2-5a27.67,27.67,0,0,0,5.2-1.05c1.7-.66,2.69-1.71,2.6-2.64s-1.3-.94-1.3-.94a2.06,2.06,0,0,0,.36-1,5.68,5.68,0,0,0,0-1.47,4.65,4.65,0,0,0,1.38,0c.74-.12,1.32-1.44,1.42-2.18s-1.49-2.27-2.45-2.72-3.85-1.94-4.75-2.21S230.12,278.75,230.12,278.75Z" style="fill:#ffbda7"></path><path d="M243.34,287.2a1.37,1.37,0,0,0,.84-.69,4.13,4.13,0,0,1-2.07,0c-1.46-.25-5.28-1.74-7.71-1.93s-5.13-.1-6.15-.65c.67.51,3.32,1,6.16,1.33a48.51,48.51,0,0,1,7.55,1.94A4.65,4.65,0,0,0,243.34,287.2Z" style="fill:#f0997a"></path><path d="M238.72,290.11c-.91.1-5-.31-6.55-.41s-4-.5-4-.5a15.69,15.69,0,0,0,3.24.85c1.41.16,5.54.55,7.13.49a5.5,5.5,0,0,0,3.06-.85,2.06,2.06,0,0,0,.36-1C241.28,289.75,239.62,290,238.72,290.11Z" style="fill:#f0997a"></path></g></g><g id="freepik--hand--inject-91"><path d="M319.94,245.9c.43-2.68.16-2.88-1.11-3.51a7,7,0,0,0-6.37,0c-1.71.93-3.49,1.77-4.15,2.68s1,2.42,3.56,1.79c4-1,4.44,0,4.44,0s-3.66.92-5,1.5-3.45,2.43-4.84,3.42-.71,3.08,2.18,2.47L306.09,256c-1.78,1.28-1.92,2.64.2,3.07a3.21,3.21,0,0,0,2.08-.22s-2.06,1-1.76,1.74c.86,2,2.39,1.89,7.15,1,1.34-.24,3.56.48,4.39.67,1.06.44,1.57,1.57,1.91,2.91l2.52-3.75a3.69,3.69,0,0,0-.5-4.38s2.28-1.09,1.72-2.56a8,8,0,0,0-2.05-2.72,2.76,2.76,0,0,0,.08-2.95,4.5,4.5,0,0,0-2.06-2.05Z" style="fill:#ffbda7"></path><path d="M308.63,254.19a14.36,14.36,0,0,1,2.37-1.53,9,9,0,0,1,2.81-.44,33.24,33.24,0,0,1,5.55.14,33.18,33.18,0,0,1-5.5.67,15.75,15.75,0,0,0-2.65.23C310.4,253.52,309.52,253.94,308.63,254.19Z" style="fill:#f0997a"></path><path d="M308.37,258.86a6.1,6.1,0,0,1,2.67-1.44,16.06,16.06,0,0,1,3-.48,27.92,27.92,0,0,1,6,.16,57.16,57.16,0,0,1-5.93.65A15.73,15.73,0,0,0,308.37,258.86Z" style="fill:#f0997a"></path></g></g></g></g><g id="freepik--Price--inject-91"><g id="freepik--price--inject-91"><g id="freepik--Circle--inject-91"><circle cx="399.62" cy="338.03" r="46.88" transform="translate(-121.98 381.58) rotate(-45)" style="fill:#fff"></circle><path d="M418.49,295.12a46.88,46.88,0,1,1-61.78,24,46.87,46.87,0,0,1,61.78-24m.6-1.38a48.38,48.38,0,1,0,24.82,63.76,48.43,48.43,0,0,0-24.82-63.76Z" style="fill:#455a64"></path><rect x="348.24" y="309.24" width="1.5" height="14.5" transform="translate(-81.2 508.58) rotate(-66.27)" style="fill:#455a64"></rect><path d="M339.79,312.45a2.8,2.8,0,1,0,3.69-1.44A2.79,2.79,0,0,0,339.79,312.45Z" style="fill:#455a64"></path></g><path d="M387.46,402v-7.8a.43.43,0,0,1,.08-.28.33.33,0,0,1,.24-.08h2a2.48,2.48,0,0,1,1.52.5,2.21,2.21,0,0,1,.67,1.85,2.75,2.75,0,0,1-.38,1.55,2,2,0,0,1-.85.74,2.5,2.5,0,0,1-.86.18h-1.32V402c0,.17-.15.26-.46.26h-.17C387.61,402.21,387.46,402.12,387.46,402Zm2.34-4.25a1,1,0,0,0,.72-.35,1.74,1.74,0,0,0,.32-1.21,1.51,1.51,0,0,0-.33-1.12,1.11,1.11,0,0,0-.8-.32h-1.17v3Z" style="fill:#0049B7"></path><path d="M393.29,402v-7.8a.43.43,0,0,1,.08-.28.33.33,0,0,1,.24-.08h1.78a2.69,2.69,0,0,1,1.77.5,2.07,2.07,0,0,1,.57,1.62,2.55,2.55,0,0,1-.29,1.26,2,2,0,0,1-.81.77V398a1,1,0,0,1,.42.47,7.2,7.2,0,0,1,.4,1l.76,2.36a.45.45,0,0,1,0,.17c0,.13-.16.19-.47.19h-.2a.85.85,0,0,1-.3,0,.26.26,0,0,1-.15-.14l-.72-2.35a2,2,0,0,0-.49-.93,1.1,1.1,0,0,0-.79-.25h-.76V402c0,.17-.15.26-.46.26h-.16C393.44,402.21,393.29,402.12,393.29,402Zm2.28-4.37a.89.89,0,0,0,.74-.44,1.79,1.79,0,0,0,.3-1,1.57,1.57,0,0,0-.29-1.05,1,1,0,0,0-.82-.35h-1.14v2.88Z" style="fill:#0049B7"></path><path d="M399.56,402V394q0-.27.45-.27h.18q.45,0,.45.27V402c0,.17-.15.26-.45.26H400C399.71,402.21,399.56,402.12,399.56,402Z" style="fill:#0049B7"></path><path d="M403,401.22a5.47,5.47,0,0,1-.77-3.23,5.4,5.4,0,0,1,.78-3.22,2.73,2.73,0,0,1,2.36-1,3.68,3.68,0,0,1,.66.06,2.4,2.4,0,0,1,.55.16.44.44,0,0,1,.16.12.41.41,0,0,1,0,.21,1.54,1.54,0,0,1-.09.47c-.07.17-.16.23-.28.16a2.41,2.41,0,0,0-1-.25,1.67,1.67,0,0,0-1.53.81,4.93,4.93,0,0,0-.49,2.52,5,5,0,0,0,.49,2.53,1.64,1.64,0,0,0,1.51.81,2.15,2.15,0,0,0,1.13-.3l.11,0c.1,0,.19.07.25.21a1,1,0,0,1,.09.4.43.43,0,0,1-.06.22.65.65,0,0,1-.23.18,3,3,0,0,1-.55.17,3.57,3.57,0,0,1-.74.08A2.73,2.73,0,0,1,403,401.22Z" style="fill:#0049B7"></path><path d="M408.19,402.1a.38.38,0,0,1-.08-.27v-7.68a.43.43,0,0,1,.08-.28.33.33,0,0,1,.24-.08h3.46c.15,0,.23.12.23.36v.19c0,.24-.08.36-.23.36h-2.7v2.74h2.42c.16,0,.23.12.23.36V398c0,.24-.07.36-.23.36h-2.42v2.93h2.7a.17.17,0,0,1,.17.08.51.51,0,0,1,.06.28v.19a.45.45,0,0,1-.06.27.18.18,0,0,1-.17.09h-3.46A.3.3,0,0,1,408.19,402.1Z" style="fill:#0049B7"></path><path d="M414.82,355.64q-3.72,3.78-10.79,4.84v6.95h-7.51v-6.7a39.08,39.08,0,0,1-8.88-1.59A25.46,25.46,0,0,1,380.7,356l4.06-9.13a26.76,26.76,0,0,0,6.82,3.13,26,26,0,0,0,7.63,1.18c4.76,0,7.13-1.18,7.13-3.56a2.94,2.94,0,0,0-2-2.78,36.94,36.94,0,0,0-6.53-1.91,62.9,62.9,0,0,1-8.26-2.28,14,14,0,0,1-5.69-3.91,10.57,10.57,0,0,1-2.38-7.26,12.53,12.53,0,0,1,3.88-9.23q3.87-3.84,11.19-4.72v-6.88H404v6.76a36.21,36.21,0,0,1,6.85,1.25,25.08,25.08,0,0,1,5.85,2.44l-3.82,9.19a25.5,25.5,0,0,0-12.13-3.38,10.15,10.15,0,0,0-5.38,1.1,3.27,3.27,0,0,0-1.69,2.84,2.82,2.82,0,0,0,2,2.63,35.8,35.8,0,0,0,6.44,1.82,60.92,60.92,0,0,1,8.29,2.28,14.16,14.16,0,0,1,5.69,3.88,10.33,10.33,0,0,1,2.41,7.22A12.39,12.39,0,0,1,414.82,355.64Z" style="fill:#0049B7"></path></g></g><g id="freepik--Quality--inject-91"><g id="freepik--quality--inject-91"><g id="freepik--circle--inject-91"><circle cx="408.48" cy="207.44" r="46.88" transform="translate(63.97 509.44) rotate(-68.16)" style="fill:#fff"></circle><path d="M432.71,167.32a46.87,46.87,0,1,1-64.36,15.89,46.88,46.88,0,0,1,64.36-15.89m.78-1.29a48.38,48.38,0,1,0,16.4,66.42A48.43,48.43,0,0,0,433.49,166Z" style="fill:#455a64"></path><rect x="328.4" y="224.84" width="34.99" height="1.5" transform="translate(-43.82 88.99) rotate(-13.8)" style="fill:#455a64"></rect><path d="M326.19,230.43a2.8,2.8,0,1,0,2.05-3.38A2.8,2.8,0,0,0,326.19,230.43Z" style="fill:#455a64"></path></g><g id="freepik--Ribbon--inject-91"><polygon points="401.43 208.27 411.54 246 415.57 239.73 419.21 234.03 425.14 237.16 431.66 240.61 421.55 202.88 401.43 208.27" style="fill:#0049B7"></polygon><g style="opacity:0.25"><polygon points="401.43 208.27 411.54 246 415.57 239.73 419.21 234.03 425.14 237.16 431.66 240.61 421.55 202.88 401.43 208.27" style="fill:#fff"></polygon></g><polygon points="412.49 236.81 404.75 207.91 405.73 207.65 412.88 234.33 417.38 227.36 424.66 231.17 417.51 204.49 418.49 204.23 426.24 233.14 417.73 228.69 412.49 236.81" style="fill:#0049B7"></polygon><g style="opacity:0.2"><polygon points="412.49 236.81 404.75 207.91 405.73 207.65 412.88 234.33 417.38 227.36 424.66 231.17 417.51 204.49 418.49 204.23 426.24 233.14 417.73 228.69 412.49 236.81"></polygon></g><polygon points="409.03 236.65 416.55 208.56 408.45 206.39 401.43 208.27 409.03 236.65" style="fill:#0049B7;opacity:0.5"></polygon><polygon points="414.95 208.27 404.85 246 400.81 239.73 397.17 234.03 391.24 237.16 384.72 240.61 394.83 202.88 414.95 208.27" style="fill:#0049B7"></polygon><g style="opacity:0.5"><polygon points="414.95 208.27 404.85 246 400.81 239.73 397.17 234.03 391.24 237.16 384.72 240.61 394.83 202.88 414.95 208.27" style="fill:#fff"></polygon></g><polygon points="403.89 236.81 398.65 228.69 390.14 233.14 397.89 204.23 398.87 204.49 391.72 231.17 399 227.36 403.5 234.33 410.65 207.65 411.63 207.91 403.89 236.81" style="fill:#0049B7"></polygon><path d="M421.55,202.88l-13.36,3.58-13.36-3.58-3.37,12.58a4.25,4.25,0,0,0,2.63.92,4.61,4.61,0,0,0,1.1-.14,1.12,1.12,0,0,1,.31-.05,1.25,1.25,0,0,1,1.19.91,4.28,4.28,0,0,0,6.58,2.4,1.19,1.19,0,0,1,.7-.22,1.23,1.23,0,0,1,1,.52,4.29,4.29,0,0,0,7,0,1.23,1.23,0,0,1,1-.52,1.19,1.19,0,0,1,.7.22,4.28,4.28,0,0,0,6.58-2.4,1.25,1.25,0,0,1,1.19-.91,1.12,1.12,0,0,1,.31.05,4.69,4.69,0,0,0,1.11.14,4.28,4.28,0,0,0,2.13-.58Z" style="fill:#0049B7;opacity:0.5"></path><path d="M410.73,171h0a2.76,2.76,0,0,0,3.83.67h0a2.77,2.77,0,0,1,4.24,1.55h0a2.75,2.75,0,0,0,3.36,1.94h0a2.76,2.76,0,0,1,3.46,2.9h0a2.75,2.75,0,0,0,2.5,3h0a2.77,2.77,0,0,1,2.25,3.91h0a2.76,2.76,0,0,0,1.33,3.65h0a2.76,2.76,0,0,1,.78,4.44h0a2.76,2.76,0,0,0,0,3.89h0a2.76,2.76,0,0,1-.78,4.44h0a2.75,2.75,0,0,0-1.33,3.65h0a2.76,2.76,0,0,1-2.25,3.9h0a2.76,2.76,0,0,0-2.5,3h0a2.76,2.76,0,0,1-3.46,2.9h0a2.75,2.75,0,0,0-3.36,1.94h0a2.76,2.76,0,0,1-4.24,1.54h0a2.77,2.77,0,0,0-3.83.68h0a2.76,2.76,0,0,1-4.5,0h0a2.77,2.77,0,0,0-3.83-.68h0a2.76,2.76,0,0,1-4.24-1.54h0a2.75,2.75,0,0,0-3.36-1.94h0a2.76,2.76,0,0,1-3.46-2.9h0a2.76,2.76,0,0,0-2.5-3h0a2.76,2.76,0,0,1-2.25-3.9h0a2.75,2.75,0,0,0-1.33-3.65h0a2.76,2.76,0,0,1-.78-4.44h0a2.76,2.76,0,0,0,0-3.89h0a2.76,2.76,0,0,1,.78-4.44h0a2.76,2.76,0,0,0,1.33-3.65h0a2.77,2.77,0,0,1,2.25-3.91h0a2.75,2.75,0,0,0,2.5-3h0a2.76,2.76,0,0,1,3.46-2.9h0a2.75,2.75,0,0,0,3.36-1.94h0a2.77,2.77,0,0,1,4.24-1.55h0a2.76,2.76,0,0,0,3.83-.67h0A2.75,2.75,0,0,1,410.73,171Z" style="fill:#0049B7"></path><path d="M410.73,171h0a2.76,2.76,0,0,0,3.83.67h0a2.77,2.77,0,0,1,4.24,1.55h0a2.75,2.75,0,0,0,3.36,1.94h0a2.76,2.76,0,0,1,3.46,2.9h0a2.75,2.75,0,0,0,2.5,3h0a2.77,2.77,0,0,1,2.25,3.91h0a2.76,2.76,0,0,0,1.33,3.65h0a2.76,2.76,0,0,1,.78,4.44h0a2.76,2.76,0,0,0,0,3.89h0a2.76,2.76,0,0,1-.78,4.44h0a2.75,2.75,0,0,0-1.33,3.65h0a2.76,2.76,0,0,1-2.25,3.9h0a2.76,2.76,0,0,0-2.5,3h0a2.76,2.76,0,0,1-3.46,2.9h0a2.75,2.75,0,0,0-3.36,1.94h0a2.76,2.76,0,0,1-4.24,1.54h0a2.77,2.77,0,0,0-3.83.68h0a2.76,2.76,0,0,1-4.5,0h0a2.77,2.77,0,0,0-3.83-.68h0a2.76,2.76,0,0,1-4.24-1.54h0a2.75,2.75,0,0,0-3.36-1.94h0a2.76,2.76,0,0,1-3.46-2.9h0a2.76,2.76,0,0,0-2.5-3h0a2.76,2.76,0,0,1-2.25-3.9h0a2.75,2.75,0,0,0-1.33-3.65h0a2.76,2.76,0,0,1-.78-4.44h0a2.76,2.76,0,0,0,0-3.89h0a2.76,2.76,0,0,1,.78-4.44h0a2.76,2.76,0,0,0,1.33-3.65h0a2.77,2.77,0,0,1,2.25-3.91h0a2.75,2.75,0,0,0,2.5-3h0a2.76,2.76,0,0,1,3.46-2.9h0a2.75,2.75,0,0,0,3.36-1.94h0a2.77,2.77,0,0,1,4.24-1.55h0a2.76,2.76,0,0,0,3.83-.67h0A2.75,2.75,0,0,1,410.73,171Z" style="fill:#fff;opacity:0.7000000000000001"></path><circle cx="408.48" cy="194.94" r="18.1" style="fill:#0049B7"></circle><circle cx="408.48" cy="194.94" r="18.1" style="fill:#0049B7"></circle><path d="M407.59,184.05l-3,6.11-6.74,1a1,1,0,0,0-.55,1.69l4.88,4.76L401,204.31a1,1,0,0,0,1.45,1.05l6-3.17,6,3.17a1,1,0,0,0,1.45-1.05l-1.16-6.72,4.88-4.76a1,1,0,0,0-.55-1.69l-6.74-1-3-6.11A1,1,0,0,0,407.59,184.05Z" style="fill:#fafafa"></path></g><path d="M393.38,270.32c-1.14-.6-1.92-1-2.35-1.28-1.16-.59-1.73-1.94-1.73-4.05a5.47,5.47,0,0,1,.76-3.21,2.9,2.9,0,0,1,4.48,0,5.5,5.5,0,0,1,.77,3.21,6.54,6.54,0,0,1-.5,2.79,2.49,2.49,0,0,1-1.48,1.34v0l2.33,1.06a.23.23,0,0,1,.14.2,1.46,1.46,0,0,1-.21.48c-.13.21-.26.32-.38.32A16.71,16.71,0,0,1,393.38,270.32Zm.34-2.8a6.78,6.78,0,0,0,0-5.06,1.54,1.54,0,0,0-1.41-.83c-1.26,0-1.9,1.12-1.9,3.36s.64,3.37,1.9,3.37A1.53,1.53,0,0,0,393.72,267.52Z" style="fill:#0049B7"></path><path d="M397.42,268.63a2.29,2.29,0,0,1-.71-1.78V261c0-.17.16-.26.46-.26h.17c.3,0,.45.09.45.26v5.86a1.35,1.35,0,0,0,.45,1.05,1.63,1.63,0,0,0,1.16.41,1.65,1.65,0,0,0,1.15-.41,1.38,1.38,0,0,0,.45-1.05V261c0-.17.15-.26.45-.26h.17c.31,0,.46.09.46.26v5.82a2.28,2.28,0,0,1-.7,1.78,3.43,3.43,0,0,1-4,0Z" style="fill:#0049B7"></path><path d="M403.05,269s0-.07,0-.15l2.18-7.86c0-.16.2-.23.48-.23h.38c.29,0,.45.07.48.23l2.17,7.86a.28.28,0,0,1,0,.15.16.16,0,0,1-.12.15.69.69,0,0,1-.33.06h-.2c-.26,0-.4-.07-.43-.2l-.52-2h-2.58l-.5,2c0,.13-.18.2-.43.2h-.2C403.2,269.22,403.05,269.15,403.05,269Zm3.89-2.87-.85-3.28c0-.11-.07-.35-.14-.74h-.06a2.6,2.6,0,0,0,0,.28l-.1.46-.85,3.28Z" style="fill:#0049B7"></path><path d="M410,269.11a.43.43,0,0,1-.08-.28V261c0-.17.15-.26.46-.26h.16c.31,0,.46.09.46.26v7.25h2.5a.21.21,0,0,1,.18.08.51.51,0,0,1,.06.28v.19a.51.51,0,0,1-.06.28.21.21,0,0,1-.18.08h-3.26A.33.33,0,0,1,410,269.11Z" style="fill:#0049B7"></path><path d="M414.88,269V261c0-.17.15-.26.46-.26h.18c.29,0,.44.09.44.26V269c0,.18-.15.27-.44.27h-.18C415,269.22,414.88,269.13,414.88,269Z" style="fill:#0049B7"></path><path d="M419.19,269V261.7h-1.73c-.15,0-.23-.12-.23-.36v-.19c0-.24.08-.36.23-.36H422a.21.21,0,0,1,.19.09.46.46,0,0,1,0,.27v.19a.52.52,0,0,1,0,.28.2.2,0,0,1-.19.08h-1.7V269c0,.18-.15.27-.46.27h-.16C419.34,269.22,419.19,269.13,419.19,269Z" style="fill:#0049B7"></path><path d="M424.81,269v-3.56l-2-4.2a.5.5,0,0,1-.09-.22c0-.13.17-.2.51-.2h.21a1.19,1.19,0,0,1,.31,0,.29.29,0,0,1,.16.15l1.51,3.38,1.53-3.39a.21.21,0,0,1,.16-.14,1.39,1.39,0,0,1,.32,0h.16a1.17,1.17,0,0,1,.35.06.16.16,0,0,1,.11.14.46.46,0,0,1-.07.22l-2.05,4.23V269c0,.18-.16.27-.46.27h-.17Q424.81,269.22,424.81,269Z" style="fill:#0049B7"></path></g></g><g id="freepik--Support--inject-91"><g id="freepik--support--inject-91"><g id="freepik--circle--inject-91"><circle cx="332.07" cy="95.17" r="46.88" transform="translate(29.97 262.68) rotate(-45)" style="fill:#fff"></circle><path d="M364.41,61.23a46.88,46.88,0,1,1-66.28,1.6,46.89,46.89,0,0,1,66.28-1.6m1-1.08a48.38,48.38,0,1,0,1.65,68.39,48.42,48.42,0,0,0-1.65-68.39Z" style="fill:#455a64"></path><rect x="287.1" y="134" width="14.5" height="1.5" transform="translate(-6.26 254.88) rotate(-46.38)" style="fill:#455a64"></rect><path d="M287.42,142a2.8,2.8,0,1,1,3.95-.1A2.8,2.8,0,0,1,287.42,142Z" style="fill:#455a64"></path></g><path d="M311.28,157.43a.32.32,0,0,1-.1-.1.34.34,0,0,1,0-.17,1.47,1.47,0,0,1,.08-.45c0-.16.12-.24.2-.24a.09.09,0,0,1,.07,0l0,0a2.57,2.57,0,0,0,1.66.52,1.4,1.4,0,0,0,1-.37,1.28,1.28,0,0,0,.39-1,1.2,1.2,0,0,0-.32-.88,3.47,3.47,0,0,0-.92-.63,8.88,8.88,0,0,1-1.09-.61,2.32,2.32,0,0,1-.67-.72,2,2,0,0,1-.27-1.09A2.23,2.23,0,0,1,312,150a2.57,2.57,0,0,1,1.8-.63,2.76,2.76,0,0,1,1.46.37.14.14,0,0,1,.08.14,1.2,1.2,0,0,1-.11.44c-.08.2-.15.29-.22.29a.46.46,0,0,1-.16-.06,2.46,2.46,0,0,0-1.11-.23,1.49,1.49,0,0,0-1,.33,1.35,1.35,0,0,0-.06,1.83,4.36,4.36,0,0,0,1.07.71,7.91,7.91,0,0,1,1,.58,2.28,2.28,0,0,1,.63.71,2.16,2.16,0,0,1,.25,1.1,2.27,2.27,0,0,1-.69,1.76,2.6,2.6,0,0,1-1.8.63A3.16,3.16,0,0,1,311.28,157.43Z" style="fill:#0049B7"></path><path d="M317.53,157.36a2.25,2.25,0,0,1-.7-1.77v-5.82q0-.27.45-.27h.17c.31,0,.46.09.46.27v5.85a1.37,1.37,0,0,0,.45,1.06,1.66,1.66,0,0,0,1.16.41,1.61,1.61,0,0,0,1.14-.42,1.35,1.35,0,0,0,.45-1v-5.85c0-.18.15-.27.46-.27h.17q.45,0,.45.27v5.82a2.28,2.28,0,0,1-.69,1.77,3.4,3.4,0,0,1-4,0Z" style="fill:#0049B7"></path><path d="M323.88,157.69v-7.8a.43.43,0,0,1,.08-.28.32.32,0,0,1,.25-.08h2a2.44,2.44,0,0,1,1.52.5,2.21,2.21,0,0,1,.66,1.85,2.67,2.67,0,0,1-.38,1.55,1.9,1.9,0,0,1-.85.74,2.41,2.41,0,0,1-.86.18H325v3.34c0,.17-.15.26-.45.26h-.17C324,158,323.88,157.86,323.88,157.69Zm2.34-4.25a1,1,0,0,0,.72-.35,1.73,1.73,0,0,0,.33-1.21,1.51,1.51,0,0,0-.33-1.12,1.13,1.13,0,0,0-.8-.32H325v3Z" style="fill:#0049B7"></path><path d="M329.67,157.69v-7.8a.43.43,0,0,1,.08-.28.29.29,0,0,1,.24-.08h2a2.42,2.42,0,0,1,1.52.5,2.21,2.21,0,0,1,.67,1.85,2.75,2.75,0,0,1-.38,1.55,2,2,0,0,1-.85.74,2.45,2.45,0,0,1-.86.18h-1.32v3.34c0,.17-.15.26-.46.26h-.17C329.82,158,329.67,157.86,329.67,157.69Zm2.34-4.25a1,1,0,0,0,.72-.35,1.74,1.74,0,0,0,.32-1.21,1.51,1.51,0,0,0-.33-1.12,1.11,1.11,0,0,0-.8-.32h-1.17v3Z" style="fill:#0049B7"></path><path d="M335.93,156.93a5.55,5.55,0,0,1-.77-3.23q0-4.24,3-4.24t3,4.24a5.55,5.55,0,0,1-.77,3.23,2.88,2.88,0,0,1-4.48,0Zm4.14-3.23q0-3.33-1.89-3.33a1.55,1.55,0,0,0-1.43.81,5.23,5.23,0,0,0-.47,2.52c0,2.26.63,3.39,1.9,3.39S340.07,156,340.07,153.7Z" style="fill:#0049B7"></path><path d="M342.69,157.69v-7.8a.43.43,0,0,1,.08-.28.29.29,0,0,1,.24-.08h1.78a2.59,2.59,0,0,1,1.76.5,2,2,0,0,1,.58,1.62,2.51,2.51,0,0,1-.29,1.25,2,2,0,0,1-.81.78v0a1,1,0,0,1,.42.46,8,8,0,0,1,.4,1l.76,2.36a.79.79,0,0,1,0,.17c0,.13-.16.19-.47.19H347a.84.84,0,0,1-.29,0,.29.29,0,0,1-.15-.14l-.72-2.35a2.07,2.07,0,0,0-.49-.93,1.1,1.1,0,0,0-.79-.25h-.76v3.46c0,.17-.15.26-.46.26h-.16C342.84,158,342.69,157.86,342.69,157.69Zm2.28-4.37a.9.9,0,0,0,.74-.44,1.79,1.79,0,0,0,.3-1,1.57,1.57,0,0,0-.29-1.05,1,1,0,0,0-.82-.35h-1.14v2.88Z" style="fill:#0049B7"></path><path d="M350.12,157.69v-7.25h-1.73c-.15,0-.23-.12-.23-.36v-.19c0-.24.08-.36.23-.36h4.51a.2.2,0,0,1,.19.08.63.63,0,0,1,.05.28v.19a.56.56,0,0,1-.05.27.21.21,0,0,1-.19.09h-1.7v7.25c0,.17-.15.26-.46.26h-.17C350.27,158,350.12,157.86,350.12,157.69Z" style="fill:#0049B7"></path><g id="freepik--Gear--inject-91"><path d="M362.43,116.69a.92.92,0,0,0,0-1.07l-4.26-5.39a4.3,4.3,0,0,1-.52-4.37s0,0,0-.07h0a4.3,4.3,0,0,1,3.45-2.69l6.82-.77a.87.87,0,0,0,.78-.73,35.84,35.84,0,0,0,.56-6.33,37.14,37.14,0,0,0-.53-6.36.89.89,0,0,0-.78-.73l-6.81-.79a4.35,4.35,0,0,1-3.43-2.67l-.05-.14a4.23,4.23,0,0,1,.55-4.34l4.27-5.36a.9.9,0,0,0,0-1.07,35.69,35.69,0,0,0-8.95-9,.9.9,0,0,0-1.06,0l-5.37,4.24a4.41,4.41,0,0,1-4.38.54l-.07,0A4.35,4.35,0,0,1,340,66.1l-.77-6.81a.91.91,0,0,0-.73-.79,37.29,37.29,0,0,0-12.69,0,.89.89,0,0,0-.73.78l-.81,6.82a4.3,4.3,0,0,1-2.69,3.46l-.08,0a4.39,4.39,0,0,1-4.38-.56l-5.35-4.26a.92.92,0,0,0-1.07,0,36.19,36.19,0,0,0-9,9,.9.9,0,0,0,0,1.07L306,80.11a4.28,4.28,0,0,1,.51,4.35.21.21,0,0,1,0,.12A4.25,4.25,0,0,1,303,87.24l-6.85.77a.89.89,0,0,0-.76.74,36.65,36.65,0,0,0,0,12.65.86.86,0,0,0,.78.73L303,103a4.37,4.37,0,0,1,3.46,2.72s0,0,0,.08a4.24,4.24,0,0,1-.53,4.35l-4.26,5.37a.9.9,0,0,0-.05,1.07,36.27,36.27,0,0,0,9,9,.89.89,0,0,0,1.06,0l5.37-4.25a4.34,4.34,0,0,1,4.38-.5l.09,0a4.32,4.32,0,0,1,2.68,3.46l.76,6.82a.9.9,0,0,0,.73.79,35.27,35.27,0,0,0,6.34.56,37.73,37.73,0,0,0,6.36-.53.94.94,0,0,0,.73-.78l.8-6.82a4.29,4.29,0,0,1,2.68-3.45l.09,0a4.35,4.35,0,0,1,4.38.54l5.35,4.28a.88.88,0,0,0,1.06,0A36.15,36.15,0,0,0,362.43,116.69Zm-30.38-.21a21.32,21.32,0,1,1,21.33-21.25A21.33,21.33,0,0,1,332.05,116.48Z" style="fill:#0049B7"></path><path d="M362.43,116.69a.92.92,0,0,0,0-1.07l-4.26-5.39a4.3,4.3,0,0,1-.52-4.37s0,0,0-.07h0a4.3,4.3,0,0,1,3.45-2.69l6.82-.77a.87.87,0,0,0,.78-.73,35.84,35.84,0,0,0,.56-6.33,37.14,37.14,0,0,0-.53-6.36.89.89,0,0,0-.78-.73l-6.81-.79a4.35,4.35,0,0,1-3.43-2.67l-.05-.14a4.23,4.23,0,0,1,.55-4.34l4.27-5.36a.9.9,0,0,0,0-1.07,35.69,35.69,0,0,0-8.95-9,.9.9,0,0,0-1.06,0l-5.37,4.24a4.41,4.41,0,0,1-4.38.54l-.07,0A4.35,4.35,0,0,1,340,66.1l-.77-6.81a.91.91,0,0,0-.73-.79,37.29,37.29,0,0,0-12.69,0,.89.89,0,0,0-.73.78l-.81,6.82a4.3,4.3,0,0,1-2.69,3.46l-.08,0a4.39,4.39,0,0,1-4.38-.56l-5.35-4.26a.92.92,0,0,0-1.07,0,36.19,36.19,0,0,0-9,9,.9.9,0,0,0,0,1.07L306,80.11a4.28,4.28,0,0,1,.51,4.35.21.21,0,0,1,0,.12A4.25,4.25,0,0,1,303,87.24l-6.85.77a.89.89,0,0,0-.76.74,36.65,36.65,0,0,0,0,12.65.86.86,0,0,0,.78.73L303,103a4.37,4.37,0,0,1,3.46,2.72s0,0,0,.08a4.24,4.24,0,0,1-.53,4.35l-4.26,5.37a.9.9,0,0,0-.05,1.07,36.27,36.27,0,0,0,9,9,.89.89,0,0,0,1.06,0l5.37-4.25a4.34,4.34,0,0,1,4.38-.5l.09,0a4.32,4.32,0,0,1,2.68,3.46l.76,6.82a.9.9,0,0,0,.73.79,35.27,35.27,0,0,0,6.34.56,37.73,37.73,0,0,0,6.36-.53.94.94,0,0,0,.73-.78l.8-6.82a4.29,4.29,0,0,1,2.68-3.45l.09,0a4.35,4.35,0,0,1,4.38.54l5.35,4.28a.88.88,0,0,0,1.06,0A36.15,36.15,0,0,0,362.43,116.69Zm-30.38-.21a21.32,21.32,0,1,1,21.33-21.25A21.33,21.33,0,0,1,332.05,116.48Z" style="fill:#fff;opacity:0.55"></path></g><path d="M324,84.92a16,16,0,0,1,1.56-1.19,11.15,11.15,0,0,1,4-1.65,12.16,12.16,0,0,1,2.49-.24,10.23,10.23,0,0,1,3.32.51,7.38,7.38,0,0,1,2.57,1.43A6.4,6.4,0,0,1,339.59,86a7.27,7.27,0,0,1,.58,3,7.46,7.46,0,0,1-.46,2.76,7.89,7.89,0,0,1-1.15,2A8.91,8.91,0,0,1,337,95.26l-1.56,1.18a13.42,13.42,0,0,0-1.27,1.09,2.15,2.15,0,0,0-.64,1.21l-.48,3.06h-3.54l-.36-3.42a2.84,2.84,0,0,1,.28-1.73,5.35,5.35,0,0,1,1.09-1.36,14.58,14.58,0,0,1,1.52-1.19,14,14,0,0,0,1.57-1.26,6.89,6.89,0,0,0,1.23-1.53,4,4,0,0,0,.49-2,3.11,3.11,0,0,0-.28-1.35,2.92,2.92,0,0,0-.79-1,3.49,3.49,0,0,0-1.2-.67,5,5,0,0,0-1.52-.23,6.54,6.54,0,0,0-2,.27,7.6,7.6,0,0,0-1.41.58c-.38.22-.71.42-1,.59a1.41,1.41,0,0,1-.72.26,1.15,1.15,0,0,1-1.09-.63Zm4,22.4a3.21,3.21,0,0,1,.24-1.23,3.05,3.05,0,0,1,.66-1,3.24,3.24,0,0,1,1-.67,3.12,3.12,0,0,1,1.26-.25,3.07,3.07,0,0,1,1.25.25,3.31,3.31,0,0,1,1,.67,3,3,0,0,1,.68,1,3.2,3.2,0,0,1,0,2.48,2.91,2.91,0,0,1-.68,1,3.11,3.11,0,0,1-1,.66,3.24,3.24,0,0,1-1.25.24,3.29,3.29,0,0,1-1.26-.24,3.05,3.05,0,0,1-1-.66,3,3,0,0,1-.66-1A3.2,3.2,0,0,1,328,107.32Z" style="fill:#37474f"></path></g></g><g id="freepik--Satisfaction--inject-91"><g id="freepik--satisfaction--inject-91"><g id="freepik--circle--inject-91"><circle cx="161.04" cy="95.17" r="46.88" transform="translate(-20.92 51.79) rotate(-17.17)" style="fill:#fff"></circle><path d="M128.7,61.23a46.88,46.88,0,1,1-1.59,66.28,46.89,46.89,0,0,1,1.59-66.28m-1-1.08a48.38,48.38,0,1,0,68.39,1.64,48.43,48.43,0,0,0-68.39-1.64Z" style="fill:#455a64"></path><rect x="198.01" y="127.49" width="1.5" height="14.5" transform="translate(-38.08 174.33) rotate(-43.62)" style="fill:#455a64"></rect><path d="M205.69,142a2.79,2.79,0,1,0-3.95-.1A2.79,2.79,0,0,0,205.69,142Z" style="fill:#455a64"></path></g><g id="freepik--happy-face--inject-91"><circle cx="161.35" cy="95.15" r="30.06" style="fill:#0049B7"></circle><circle cx="161.35" cy="95.15" r="30.06" style="fill:#fff;opacity:0.55"></circle><path d="M143.61,96.17a14.47,14.47,0,0,0,3.74,9.46,18.77,18.77,0,0,0,28,0,14.5,14.5,0,0,0,3.73-9.47Z" style="fill:#37474f"></path><path d="M147.35,105.63a18.77,18.77,0,0,0,28,0,22.26,22.26,0,0,0-28,0Z" style="fill:#0049B7"></path><path d="M152.44,86.45a3.1,3.1,0,1,1-3.1-3.1A3.1,3.1,0,0,1,152.44,86.45Z" style="fill:#37474f"></path><path d="M176.32,86.79a3.1,3.1,0,1,1-3.1-3.11A3.1,3.1,0,0,1,176.32,86.79Z" style="fill:#37474f"></path></g><path d="M129.51,157.43a.24.24,0,0,1-.1-.1.34.34,0,0,1,0-.17,1.45,1.45,0,0,1,.07-.45c.06-.16.12-.24.2-.24a.11.11,0,0,1,.08,0l0,0a2.6,2.6,0,0,0,1.67.52,1.37,1.37,0,0,0,1-.37,1.28,1.28,0,0,0,.39-1,1.2,1.2,0,0,0-.31-.88,3.73,3.73,0,0,0-.93-.63,9.45,9.45,0,0,1-1.08-.61,2.21,2.21,0,0,1-.67-.72,2,2,0,0,1-.27-1.09,2.23,2.23,0,0,1,.69-1.73,2.54,2.54,0,0,1,1.79-.63,2.71,2.71,0,0,1,1.46.37.15.15,0,0,1,.09.14,1.45,1.45,0,0,1-.11.44c-.08.2-.16.29-.23.29l-.15-.06a2.54,2.54,0,0,0-1.12-.23,1.46,1.46,0,0,0-1,.33,1.16,1.16,0,0,0-.4,1,1.18,1.18,0,0,0,.33.87,4.26,4.26,0,0,0,1.08.71,9.71,9.71,0,0,1,1,.58,2.09,2.09,0,0,1,.88,1.81,2.24,2.24,0,0,1-.7,1.76,2.57,2.57,0,0,1-1.8.63A3.13,3.13,0,0,1,129.51,157.43Z" style="fill:#0049B7"></path><path d="M134.39,157.75a.8.8,0,0,1,0-.16l2.17-7.86c0-.15.21-.23.48-.23h.38c.29,0,.45.08.48.23l2.18,7.86a.5.5,0,0,1,0,.16.18.18,0,0,1-.11.15,1,1,0,0,1-.33,0h-.21c-.25,0-.4-.06-.43-.19l-.52-2H136l-.5,2c0,.13-.18.19-.43.19h-.19C134.54,158,134.39,157.88,134.39,157.75Zm3.89-2.87-.85-3.29c0-.1-.07-.35-.13-.73h-.06a1.19,1.19,0,0,0-.05.27l-.1.46-.85,3.29Z" style="fill:#0049B7"></path><path d="M142.18,157.69v-7.25h-1.73c-.15,0-.22-.12-.22-.36v-.19c0-.24.07-.36.22-.36H145a.19.19,0,0,1,.18.08.52.52,0,0,1,0,.28v.19a.46.46,0,0,1,0,.27.2.2,0,0,1-.18.09h-1.71v7.25c0,.17-.15.26-.45.26h-.17C142.33,158,142.18,157.86,142.18,157.69Z" style="fill:#0049B7"></path><path d="M146.47,157.69v-7.92q0-.27.45-.27h.18q.45,0,.45.27v7.92c0,.17-.15.26-.45.26h-.18C146.62,158,146.47,157.86,146.47,157.69Z" style="fill:#0049B7"></path><path d="M149.09,157.43a.24.24,0,0,1-.1-.1.34.34,0,0,1,0-.17,1.47,1.47,0,0,1,.08-.45c.05-.16.12-.24.2-.24a.09.09,0,0,1,.07,0l0,0A2.6,2.6,0,0,0,151,157a1.42,1.42,0,0,0,1-.37,1.28,1.28,0,0,0,.39-1,1.2,1.2,0,0,0-.32-.88,3.64,3.64,0,0,0-.92-.63,8.88,8.88,0,0,1-1.09-.61,2.32,2.32,0,0,1-.67-.72,2,2,0,0,1-.27-1.09,2.23,2.23,0,0,1,.69-1.73,2.56,2.56,0,0,1,1.79-.63,2.77,2.77,0,0,1,1.47.37.14.14,0,0,1,.08.14,1.45,1.45,0,0,1-.11.44c-.08.2-.15.29-.22.29a.46.46,0,0,1-.16-.06,2.49,2.49,0,0,0-1.11-.23,1.49,1.49,0,0,0-1,.33,1.35,1.35,0,0,0-.06,1.83,4.36,4.36,0,0,0,1.07.71,7.91,7.91,0,0,1,1,.58,2.28,2.28,0,0,1,.63.71,2.16,2.16,0,0,1,.25,1.1,2.27,2.27,0,0,1-.69,1.76,2.6,2.6,0,0,1-1.8.63A3.16,3.16,0,0,1,149.09,157.43Z" style="fill:#0049B7"></path><path d="M154.76,157.69v-7.8a.43.43,0,0,1,.07-.28.33.33,0,0,1,.25-.08h3.12c.15,0,.23.12.23.36v.19c0,.24-.08.36-.23.36h-2.36v2.74H158c.15,0,.23.12.23.36v.19c0,.24-.08.36-.23.36h-2.16v3.6c0,.17-.15.26-.46.26h-.17C154.91,158,154.76,157.86,154.76,157.69Z" style="fill:#0049B7"></path><path d="M158.82,157.75a.8.8,0,0,1,0-.16l2.17-7.86c0-.15.21-.23.48-.23h.38c.29,0,.45.08.48.23l2.18,7.86a.5.5,0,0,1,0,.16.18.18,0,0,1-.11.15,1,1,0,0,1-.33,0h-.21c-.25,0-.4-.06-.43-.19l-.51-2H160.4l-.51,2c0,.13-.17.19-.43.19h-.19C159,158,158.82,157.88,158.82,157.75Zm3.89-2.87-.85-3.29c0-.1-.07-.35-.13-.73h-.06a2.24,2.24,0,0,0,0,.27l-.09.46-.86,3.29Z" style="fill:#0049B7"></path><path d="M166.08,157a5.47,5.47,0,0,1-.76-3.23,5.4,5.4,0,0,1,.77-3.22,2.72,2.72,0,0,1,2.36-1,3.67,3.67,0,0,1,.66,0,2.38,2.38,0,0,1,.55.17.44.44,0,0,1,.16.12.41.41,0,0,1,0,.21,1.43,1.43,0,0,1-.09.46c-.07.18-.16.24-.28.17a2.25,2.25,0,0,0-1-.25,1.68,1.68,0,0,0-1.53.8,5.1,5.1,0,0,0-.49,2.53,5,5,0,0,0,.49,2.53,1.64,1.64,0,0,0,1.52.81,2.13,2.13,0,0,0,1.12-.3l.11,0c.11,0,.19.07.25.21a1,1,0,0,1,.09.4.43.43,0,0,1-.06.22.65.65,0,0,1-.23.18,3,3,0,0,1-.55.17,3.47,3.47,0,0,1-.73.08A2.74,2.74,0,0,1,166.08,157Z" style="fill:#0049B7"></path><path d="M172.43,157.69v-7.25H170.7c-.15,0-.22-.12-.22-.36v-.19c0-.24.07-.36.22-.36h4.52a.19.19,0,0,1,.18.08.51.51,0,0,1,.06.28v.19a.45.45,0,0,1-.06.27.19.19,0,0,1-.18.09h-1.71v7.25c0,.17-.15.26-.45.26h-.17C172.58,158,172.43,157.86,172.43,157.69Z" style="fill:#0049B7"></path><path d="M176.72,157.69v-7.92q0-.27.45-.27h.18q.45,0,.45.27v7.92c0,.17-.15.26-.45.26h-.18C176.87,158,176.72,157.86,176.72,157.69Z" style="fill:#0049B7"></path><path d="M180.18,156.93a5.56,5.56,0,0,1-.76-3.23q0-4.24,3-4.24c2,0,3,1.41,3,4.24a5.55,5.55,0,0,1-.77,3.23,2.88,2.88,0,0,1-4.48,0Zm4.14-3.23q0-3.33-1.89-3.33a1.54,1.54,0,0,0-1.42.81,5.1,5.1,0,0,0-.48,2.52c0,2.26.63,3.39,1.9,3.39S184.32,156,184.32,153.7Z" style="fill:#0049B7"></path><path d="M186.89,157.69v-7.92c0-.18.15-.27.46-.27h.29a.55.55,0,0,1,.28.06.35.35,0,0,1,.18.18l2.79,5.37a5,5,0,0,1,.31.75l.06,0a3.8,3.8,0,0,1-.1-.79v-5.28c0-.18.16-.27.46-.27h.14c.31,0,.46.09.46.27v7.92c0,.17-.15.26-.46.26h-.25c-.22,0-.37-.06-.43-.18l-2.86-5.54a5.17,5.17,0,0,1-.31-.76l-.06,0a3.17,3.17,0,0,1,.1.79v5.4c0,.17-.15.26-.46.26h-.14C187,158,186.89,157.86,186.89,157.69Z" style="fill:#0049B7"></path></g></g><g id="freepik--Reward--inject-91"><g id="freepik--reward--inject-91"><g id="freepik--circle--inject-91"><circle cx="84.63" cy="207.44" r="46.88" transform="translate(-75.39 50.63) rotate(-23.39)" style="fill:#fff"></circle><path d="M60.4,167.32a46.88,46.88,0,1,1-15.89,64.36A46.87,46.87,0,0,1,60.4,167.32M59.62,166A48.38,48.38,0,1,0,126,182.44,48.44,48.44,0,0,0,59.62,166Z" style="fill:#455a64"></path><rect x="146.47" y="208.1" width="1.5" height="34.99" transform="translate(-106.97 314.76) rotate(-76.2)" style="fill:#455a64"></rect><path d="M166.92,230.43a2.8,2.8,0,1,1-2-3.38A2.8,2.8,0,0,1,166.92,230.43Z" style="fill:#455a64"></path></g><path d="M65.77,269v-7.8a.34.34,0,0,1,.08-.27.3.3,0,0,1,.24-.09h1.78a2.59,2.59,0,0,1,1.76.51,2,2,0,0,1,.58,1.62,2.44,2.44,0,0,1-.3,1.25,1.83,1.83,0,0,1-.81.77V265a1,1,0,0,1,.42.47,7.51,7.51,0,0,1,.41,1l.76,2.37a.61.61,0,0,1,0,.16c0,.13-.15.2-.46.2h-.21a.65.65,0,0,1-.29-.06c-.09,0-.14-.08-.15-.14l-.72-2.35a2.31,2.31,0,0,0-.49-.93,1.16,1.16,0,0,0-.8-.24h-.75V269c0,.18-.15.27-.46.27h-.17Q65.77,269.22,65.77,269Zm2.28-4.37a.89.89,0,0,0,.74-.43,1.82,1.82,0,0,0,.3-1,1.66,1.66,0,0,0-.29-1.06,1,1,0,0,0-.82-.35H66.84v2.88Z" style="fill:#0049B7"></path><path d="M72,269.11a.43.43,0,0,1-.07-.28v-7.68a.38.38,0,0,1,.07-.27.33.33,0,0,1,.25-.09h3.46c.15,0,.23.12.23.36v.19c0,.24-.08.36-.23.36H73v2.74h2.42c.15,0,.23.12.23.36V265c0,.24-.08.36-.23.36H73v2.93h2.7a.2.2,0,0,1,.17.08.51.51,0,0,1,.06.28v.19a.51.51,0,0,1-.06.28.2.2,0,0,1-.17.08H72.26A.37.37,0,0,1,72,269.11Z" style="fill:#0049B7"></path><path d="M78.4,269l-1.66-7.88,0-.14c0-.16.16-.23.48-.23h.16c.29,0,.44.06.47.19l1.1,5.8c0,.24.1.58.16,1l0,.3.24-1.37L80.47,261c0-.13.17-.2.43-.2h.24c.26,0,.4.07.43.2l1.13,5.77c.06.3.13.75.2,1.35l.23-1.33L84.2,261c0-.13.18-.19.48-.19h.13c.32,0,.48.07.48.23l0,.14L83.59,269c0,.13-.17.2-.43.2h-.48c-.27,0-.41-.07-.44-.2l-1-5-.19-1.5-.2,1.5-1,5c0,.13-.17.2-.43.2h-.48C78.57,269.22,78.43,269.15,78.4,269Z" style="fill:#0049B7"></path><path d="M85.44,269s0-.07,0-.15L87.63,261c.05-.16.21-.23.48-.23h.39c.28,0,.45.07.48.23l2.17,7.86a.42.42,0,0,1,0,.15.16.16,0,0,1-.12.15.75.75,0,0,1-.33.06h-.2c-.26,0-.4-.07-.43-.2l-.52-2H87l-.51,2c0,.13-.17.2-.43.2h-.19C85.58,269.22,85.44,269.15,85.44,269Zm3.88-2.87-.85-3.28-.13-.74h-.06a2.12,2.12,0,0,0,0,.28l-.09.46-.86,3.28Z" style="fill:#0049B7"></path><path d="M92.26,269v-7.8a.38.38,0,0,1,.08-.27.32.32,0,0,1,.25-.09h1.77a2.62,2.62,0,0,1,1.77.51,2,2,0,0,1,.57,1.62,2.43,2.43,0,0,1-.29,1.25,1.94,1.94,0,0,1-.81.77V265a1,1,0,0,1,.42.47,7.51,7.51,0,0,1,.41,1l.75,2.37a.41.41,0,0,1,0,.16c0,.13-.16.2-.47.2h-.2a.73.73,0,0,1-.3-.06.23.23,0,0,1-.15-.14l-.72-2.35a2.2,2.2,0,0,0-.48-.93,1.18,1.18,0,0,0-.8-.24h-.76V269q0,.27-.45.27h-.17C92.42,269.22,92.26,269.13,92.26,269Zm2.28-4.37a.88.88,0,0,0,.74-.43,1.75,1.75,0,0,0,.31-1,1.6,1.6,0,0,0-.3-1.06,1,1,0,0,0-.82-.35H93.33v2.88Z" style="fill:#0049B7"></path><path d="M98.51,269.11a.43.43,0,0,1-.08-.28v-7.68a.38.38,0,0,1,.08-.27.3.3,0,0,1,.25-.09h2q3,0,3,4.2t-3,4.2h-2A.34.34,0,0,1,98.51,269.11Zm2.24-.83a1.59,1.59,0,0,0,1.41-.79,6.25,6.25,0,0,0,0-5,1.6,1.6,0,0,0-1.41-.8H99.53v6.58Z" style="fill:#0049B7"></path><g id="freepik--Gift--inject-91"><g id="freepik--gift--inject-91"><polygon points="84.54 237.95 114.41 220.68 114.41 199.46 115.04 199.1 115.04 190.29 84.54 207.9 84.54 237.95" style="fill:#0049B7"></polygon><g style="opacity:0.45"><polygon points="84.54 237.95 114.41 220.68 114.41 199.46 115.04 199.1 115.04 190.29 84.54 207.9 84.54 237.95" style="fill:#fff"></polygon></g><polygon points="84.54 216.71 95.97 210.1 114.41 199.46 114.41 200.73 84.54 217.97 84.54 216.71" style="opacity:0.15"></polygon><polygon points="84.54 237.95 54.83 220.81 54.83 199.55 54.04 199.1 54.04 190.29 84.54 207.9 84.54 237.95" style="fill:#0049B7"></polygon><polygon points="84.54 237.95 54.83 220.81 54.83 199.55 54.04 199.1 54.04 190.29 84.54 207.9 84.54 237.95" style="fill:#fff;opacity:0.30000000000000004"></polygon><polygon points="54.83 199.55 84.54 216.71 84.54 217.97 54.83 200.83 54.83 199.55" style="opacity:0.1"></polygon><polygon points="54.04 190.29 84.54 172.68 115.04 190.29 84.54 207.9 54.04 190.29" style="fill:#0049B7"></polygon><g style="opacity:0.6000000000000001"><polygon points="54.04 190.29 84.54 172.68 115.04 190.29 84.54 207.9 54.04 190.29" style="fill:#fff"></polygon></g><polygon points="72.15 230.8 72.15 200.75 67.19 197.89 67.19 227.94 72.15 230.8" style="fill:#ebebeb"></polygon><polygon points="72.15 230.8 72.15 200.75 67.19 197.89 67.19 227.94 72.15 230.8" style="fill:#0049B7"></polygon><polygon points="72.15 230.8 72.15 200.75 67.19 197.89 67.19 227.94 72.15 230.8" style="opacity:0.4"></polygon><polygon points="96.92 230.8 96.92 200.75 101.88 197.89 101.88 227.94 96.92 230.8" style="fill:#0049B7"></polygon><polygon points="96.92 230.8 96.92 200.75 101.88 197.89 101.88 227.94 96.92 230.8" style="opacity:0.15"></polygon><polygon points="67.19 197.89 97.7 180.28 102.65 183.14 72.15 200.75 67.19 197.89" style="fill:#0049B7"></polygon><polygon points="84.13 193.83 79.18 190.97 84.13 188.11 89.09 190.97 84.13 193.83" style="opacity:0.25"></polygon><polygon points="96.92 200.75 66.42 183.14 71.38 180.28 101.88 197.89 96.92 200.75" style="fill:#0049B7"></polygon></g><path d="M98.81,182c-.48,2.08-3.51,8.11-13.12,8.77l-1-.86s11.17-2.8,8.74-12.59Z" style="fill:#0049B7"></path><path d="M98.81,182c-.48,2.08-3.51,8.11-13.12,8.77l-1-.86s11.17-2.8,8.74-12.59Z" style="opacity:0.4"></path><path d="M84.59,191.92s0-5.92,2.25-9.41a15.44,15.44,0,0,1,6.61-5.18A13.89,13.89,0,0,1,98.81,182a18.19,18.19,0,0,0-7.73,2c-3.77,2-5.39,6.81-5.39,6.81Z" style="fill:#0049B7"></path><path d="M84.59,191.92s0-5.92,2.25-9.41a15.44,15.44,0,0,1,6.61-5.18A13.89,13.89,0,0,1,98.81,182a18.19,18.19,0,0,0-7.73,2c-3.77,2-5.39,6.81-5.39,6.81Z" style="opacity:0.15"></path><path d="M91.18,183.93l-3.9-2.05a13.15,13.15,0,0,1,2.2-2.21l5.14,2.94A17,17,0,0,0,91.18,183.93Z" style="fill:#0049B7"></path><path d="M99.53,192.89a29.1,29.1,0,0,1-14.94-1l.64-1.14a22.94,22.94,0,0,0,7.43,0c3.07-.73,5.7-5.11,5.7-5.11Z" style="fill:#0049B7"></path><path d="M99.53,192.89a29.1,29.1,0,0,1-14.94-1l.64-1.14a22.94,22.94,0,0,0,7.43,0c3.07-.73,5.7-5.11,5.7-5.11Z" style="opacity:0.4"></path><path d="M84.59,191.92s.08-1.63,2.36-3.75c3-2.78,8.85-2.78,11.41-2.5a5.2,5.2,0,0,1,2,3.24c.31,1.58-.8,4-.8,4a9.58,9.58,0,0,0-6.84-3.44,9.36,9.36,0,0,0-6.7,2Z" style="fill:#0049B7"></path><path d="M84.59,191.92s.08-1.63,2.36-3.75c3-2.78,8.85-2.78,11.41-2.5a5.2,5.2,0,0,1,2,3.24c.31,1.58-.8,4-.8,4a9.58,9.58,0,0,0-6.84-3.44,9.36,9.36,0,0,0-6.7,2Z" style="opacity:0.15"></path><path d="M93.46,185.7a25.26,25.26,0,0,1,2.92-.14,5.63,5.63,0,0,1,1.35,5.66,9.84,9.84,0,0,0-3-1.43A6.61,6.61,0,0,0,93.46,185.7Z" style="fill:#0049B7"></path><path d="M93.22,200.55a10.15,10.15,0,0,1-5.79-3,12.53,12.53,0,0,1-2.84-5.62l1.1-1.14a8.63,8.63,0,0,0,4.24,4.4c2.53,1.11,7.23,1.1,7.23,1.1Z" style="fill:#0049B7"></path><path d="M93.22,200.55a10.15,10.15,0,0,1-5.79-3,12.53,12.53,0,0,1-2.84-5.62l1.1-1.14a8.63,8.63,0,0,0,4.24,4.4c2.53,1.11,7.23,1.1,7.23,1.1Z" style="opacity:0.4"></path><path d="M84.59,191.92l1.1-1.14s4.22-.86,6.49,0,4.94,4.41,5,5.5a6.67,6.67,0,0,1-3.94,4.27,7.91,7.91,0,0,0-2.71-6.17A11.89,11.89,0,0,0,84.59,191.92Z" style="fill:#0049B7"></path><path d="M84.59,191.92l1.1-1.14s4.22-.86,6.49,0,4.94,4.41,5,5.5a6.67,6.67,0,0,1-3.94,4.27,7.91,7.91,0,0,0-2.71-6.17A11.89,11.89,0,0,0,84.59,191.92Z" style="opacity:0.15"></path><path d="M89,193.39,92.7,191a9.13,9.13,0,0,1,2.24,1.78l-3.65,2.3a6.12,6.12,0,0,0-.78-.74A13.41,13.41,0,0,0,89,193.39Z" style="fill:#0049B7"></path><path d="M73.91,181.43c-.23,1.13.6,4.26,3.37,6.33s7.43,2.83,7.43,2.83l.66-.4s-4.63-2.91-6.13-5.57-.4-6.92-.4-6.92Z" style="fill:#0049B7"></path><path d="M73.91,181.43c-.23,1.13.6,4.26,3.37,6.33s7.43,2.83,7.43,2.83l.66-.4s-4.63-2.91-6.13-5.57-.4-6.92-.4-6.92Z" style="opacity:0.4"></path><path d="M84.71,190.59a13.39,13.39,0,0,0-4.64-6.53,13.24,13.24,0,0,0-6.16-2.63,8,8,0,0,1,4.93-3.73s4,2.33,5.46,5.88a14.11,14.11,0,0,1,1.07,6.61Z" style="fill:#0049B7"></path><path d="M84.71,190.59a13.39,13.39,0,0,0-4.64-6.53,13.24,13.24,0,0,0-6.16-2.63,8,8,0,0,1,4.93-3.73s4,2.33,5.46,5.88a14.11,14.11,0,0,1,1.07,6.61Z" style="opacity:0.15"></path><path d="M78.32,183a14.69,14.69,0,0,0-2.38-1.06,12.52,12.52,0,0,1,4.43-3.13,16.3,16.3,0,0,1,2.34,2.27A9.28,9.28,0,0,0,78.32,183Z" style="fill:#0049B7"></path><path d="M69.94,188.83c1.36,1.83,6,4.88,14.26,2.39l.51-1a18.25,18.25,0,0,1-8.52-1.6c-3.85-2-4.14-4.6-4.14-4.6Z" style="fill:#0049B7"></path><path d="M69.94,188.83c1.36,1.83,6,4.88,14.26,2.39l.51-1a18.25,18.25,0,0,1-8.52-1.6c-3.85-2-4.14-4.6-4.14-4.6Z" style="opacity:0.4"></path><path d="M84.71,190.26A12,12,0,0,0,79,185a12.44,12.44,0,0,0-7-.94,5.78,5.78,0,0,0-2.11,4.77,11.79,11.79,0,0,1,6.81-1c3.92.57,7,2.34,7.45,3.43Z" style="fill:#0049B7"></path><path d="M84.71,190.26A12,12,0,0,0,79,185a12.44,12.44,0,0,0-7-.94,5.78,5.78,0,0,0-2.11,4.77,11.79,11.79,0,0,1,6.81-1c3.92.57,7,2.34,7.45,3.43Z" style="opacity:0.15"></path><path d="M74,187.73a11.67,11.67,0,0,0-2.8.59,8.62,8.62,0,0,1,2.71-4.4,13.31,13.31,0,0,1,1.76.14A8,8,0,0,0,74,187.73Z" style="fill:#0049B7"></path><path d="M75.12,201.47c2.12.05,8.75-2.95,9.47-9.55l-.71-1.59a12.39,12.39,0,0,1-4.56,5.33c-3,1.67-7.35,1.64-7.35,1.64Z" style="fill:#0049B7"></path><path d="M75.12,201.47c2.12.05,8.75-2.95,9.47-9.55l-.71-1.59a12.39,12.39,0,0,1-4.56,5.33c-3,1.67-7.35,1.64-7.35,1.64Z" style="opacity:0.4"></path><path d="M84.71,190.26a19.38,19.38,0,0,0-6.39,1c-4.6,1.86-6.15,4.05-6.35,6.08a7.71,7.71,0,0,0,3.15,4.17s1.89-4.91,4.2-7c3.1-2.75,5.27-2.57,5.27-2.57Z" style="fill:#0049B7"></path><path d="M84.71,190.26a19.38,19.38,0,0,0-6.39,1c-4.6,1.86-6.15,4.05-6.35,6.08a7.71,7.71,0,0,0,3.15,4.17s1.89-4.91,4.2-7c3.1-2.75,5.27-2.57,5.27-2.57Z" style="opacity:0.15"></path><path d="M75.69,200.13a14.84,14.84,0,0,1-3.43-4,6.35,6.35,0,0,1,2.16-2.76,9.08,9.08,0,0,0,3.94,2.16A23.12,23.12,0,0,0,75.69,200.13Z" style="fill:#0049B7"></path></g></g></g><g id="freepik--Trust--inject-91"><g id="freepik--trust--inject-91"><g id="freepik--circle--inject-91"><circle cx="93.49" cy="338.03" r="46.88" transform="translate(-238.6 225.24) rotate(-55.78)" style="fill:#fff"></circle><path d="M74.62,295.12a46.88,46.88,0,1,1-24,61.78,46.87,46.87,0,0,1,24-61.78m-.6-1.38a48.38,48.38,0,1,0,63.76,24.82A48.43,48.43,0,0,0,74,293.74Z" style="fill:#455a64"></path><rect x="136.87" y="315.74" width="14.5" height="1.5" transform="translate(-115.2 84.78) rotate(-23.73)" style="fill:#455a64"></rect><path d="M153.32,312.45a2.8,2.8,0,1,1-3.68-1.44A2.79,2.79,0,0,1,153.32,312.45Z" style="fill:#455a64"></path></g><path d="M81,402V394.7H79.31c-.15,0-.22-.12-.22-.36v-.19c0-.24.07-.36.22-.36h4.52a.21.21,0,0,1,.18.08.51.51,0,0,1,.06.28v.19a.51.51,0,0,1-.06.28.21.21,0,0,1-.18.08H82.12V402c0,.17-.15.26-.45.26H81.5C81.19,402.21,81,402.12,81,402Z" style="fill:#0049B7"></path><path d="M85.22,402v-7.8a.38.38,0,0,1,.08-.28.33.33,0,0,1,.24-.08h1.78a2.64,2.64,0,0,1,1.76.5,2,2,0,0,1,.58,1.62,2.45,2.45,0,0,1-.3,1.26,1.88,1.88,0,0,1-.81.77V398a1,1,0,0,1,.42.47,7,7,0,0,1,.41,1l.76,2.36a.67.67,0,0,1,0,.17c0,.13-.15.19-.46.19H89.5a.84.84,0,0,1-.29,0c-.09,0-.14-.08-.15-.14l-.72-2.35a2.07,2.07,0,0,0-.49-.93,1.11,1.11,0,0,0-.8-.25H86.3V402c0,.17-.15.26-.46.26h-.17C85.37,402.21,85.22,402.12,85.22,402Zm2.28-4.37a.9.9,0,0,0,.74-.44,1.79,1.79,0,0,0,.3-1,1.57,1.57,0,0,0-.29-1.05,1,1,0,0,0-.82-.35H86.29v2.88Z" style="fill:#0049B7"></path><path d="M92,401.62a2.25,2.25,0,0,1-.7-1.77V394q0-.27.45-.27h.17c.31,0,.46.09.46.27v5.85a1.35,1.35,0,0,0,.45,1.06,1.65,1.65,0,0,0,1.15.41,1.61,1.61,0,0,0,1.15-.42,1.35,1.35,0,0,0,.45-1.05V394c0-.18.15-.27.46-.27h.16c.31,0,.46.09.46.27v5.82a2.28,2.28,0,0,1-.69,1.77,3.4,3.4,0,0,1-4,0Z" style="fill:#0049B7"></path><path d="M98,401.7a.33.33,0,0,1-.1-.11.34.34,0,0,1,0-.17,1.53,1.53,0,0,1,.08-.45c0-.16.12-.23.2-.23a.08.08,0,0,1,.07,0l0,0a2.62,2.62,0,0,0,1.67.52,1.42,1.42,0,0,0,1-.37,1.28,1.28,0,0,0,.39-1,1.2,1.2,0,0,0-.32-.88,3.64,3.64,0,0,0-.92-.63,8.88,8.88,0,0,1-1.09-.61,2.4,2.4,0,0,1-.67-.71A2.09,2.09,0,0,1,98,396a2.21,2.21,0,0,1,.69-1.72,2.56,2.56,0,0,1,1.79-.63A2.86,2.86,0,0,1,102,394a.14.14,0,0,1,.08.14,1.45,1.45,0,0,1-.11.44c-.08.2-.15.29-.22.29a.46.46,0,0,1-.16-.06,2.49,2.49,0,0,0-1.11-.23,1.49,1.49,0,0,0-1,.33,1.35,1.35,0,0,0-.06,1.83,4.36,4.36,0,0,0,1.07.71,7.91,7.91,0,0,1,1,.58,2.28,2.28,0,0,1,.63.71,2.16,2.16,0,0,1,.25,1.1,2.27,2.27,0,0,1-.69,1.76,2.6,2.6,0,0,1-1.8.63A3.22,3.22,0,0,1,98,401.7Z" style="fill:#0049B7"></path><path d="M104.89,402V394.7h-1.73c-.15,0-.23-.12-.23-.36v-.19c0-.24.08-.36.23-.36h4.51a.23.23,0,0,1,.19.08.63.63,0,0,1,0,.28v.19a.63.63,0,0,1,0,.28.23.23,0,0,1-.19.08H106V402c0,.17-.15.26-.46.26h-.17C105,402.21,104.89,402.12,104.89,402Z" style="fill:#0049B7"></path><g id="freepik--Shield--inject-91"><path d="M93.52,370.5l0,0,0,0Zm28-51.05c-11.75,1.25-21.91-2.12-26.89-11.82a1.22,1.22,0,0,0-2.17,0c-5,9.7-15.14,13.07-26.89,11.82a1.24,1.24,0,0,0-1.39,1.19c-.39,25.41,14.76,45.29,29.36,49.84,14.61-4.55,29.76-24.43,29.36-49.84A1.23,1.23,0,0,0,121.47,319.45Z" style="fill:#0049B7"></path><path d="M93.49,374.68l-1.19-.38c-16.15-5-32.59-26.51-32.17-53.72a5.29,5.29,0,0,1,5.81-5.11,39.64,39.64,0,0,0,4.15.23c6.24,0,14.56-1.72,18.76-9.9a5.22,5.22,0,0,1,9.28,0c4.21,8.18,12.53,9.9,18.76,9.9a39.49,39.49,0,0,0,4.15-.23l.56,0a5.26,5.26,0,0,1,5.25,5.14c.43,27.21-16,48.69-32.17,53.72Zm-.59-2.29.59.19.6-.19c15.44-4.81,31.17-25.5,30.76-51.78a3.25,3.25,0,0,0-3.6-3.15,40.79,40.79,0,0,1-4.36.24c-6.79,0-15.87-1.91-20.53-11a3.22,3.22,0,0,0-5.73,0c-4.67,9.07-13.74,11-20.54,11a40.79,40.79,0,0,1-4.36-.24,2.06,2.06,0,0,0-.35,0,3.25,3.25,0,0,0-3.25,3.17c-.41,26.28,15.32,47,30.77,51.78Z" style="fill:#0049B7"></path><path d="M93.52,370.5l0,0,0,0Zm28-51.05c-11.75,1.25-21.91-2.12-26.89-11.82a1.22,1.22,0,0,0-2.17,0c-5,9.7-15.14,13.07-26.89,11.82a1.24,1.24,0,0,0-1.39,1.19c-.39,25.41,14.76,45.29,29.36,49.84,14.61-4.55,29.76-24.43,29.36-49.84A1.23,1.23,0,0,0,121.47,319.45Z" style="fill:#fff;opacity:0.5"></path><g id="freepik--Check--inject-91"><path d="M91.83,351.56a3.21,3.21,0,0,1-2.35-1l-7.28-7.78a3.21,3.21,0,1,1,4.69-4.39l4.73,5.05,11.19-14.18a3.21,3.21,0,0,1,5,4L94.35,350.34A3.2,3.2,0,0,1,92,351.56Z" style="fill:#fff"></path></g></g></g></g></svg>
